<svg width="29" height="29" viewBox="0 0 29 29" fill="none" xmlns="http://www.w3.org/2000/svg">
    <path d="M14.4998 29C15.3829 29.0003 16.2358 28.6782 16.8983 28.0942C17.5607 27.5101 17.9872 26.7043 18.0976 25.8281C18.1284 25.5798 17.9218 25.375 17.6717 25.375H11.3279C11.0778 25.375 10.8712 25.5798 10.902 25.8281C11.0124 26.7043 11.4388 27.5101 12.1013 28.0942C12.7638 28.6782 13.6166 29.0003 14.4998 29Z" />
    <path fill-rule="evenodd" clip-rule="evenodd" d="M14.4999 2.71875C12.8174 2.71875 11.2038 3.38711 10.0142 4.57679C8.82447 5.76648 8.15611 7.38003 8.15611 9.0625V14.4039C8.15611 15.0311 7.97124 15.6419 7.62324 16.1621L4.53655 20.7948C4.53299 20.8002 4.5311 20.8065 4.53111 20.8129L4.53293 20.8238C4.53293 20.8274 4.53655 20.8311 4.54018 20.8347C4.54324 20.8379 4.54695 20.8403 4.55105 20.8419L4.56374 20.8438H24.436L24.4487 20.8419C24.4528 20.8404 24.4565 20.8379 24.4596 20.8347C24.4628 20.8317 24.4652 20.8279 24.4668 20.8238L24.4686 20.8111C24.4687 20.8047 24.4668 20.7983 24.4632 20.793L21.3765 16.1639C21.0293 15.6432 20.8439 15.0315 20.8436 14.4058V9.0625C20.8436 7.38003 20.1753 5.76648 18.9856 4.57679C17.7959 3.38711 16.1823 2.71875 14.4999 2.71875ZM5.43736 9.0625C5.43736 6.65898 6.39216 4.35389 8.09171 2.65434C9.79126 0.954796 12.0963 0 14.4999 0C16.9034 0 19.2085 0.954796 20.908 2.65434C22.6076 4.35389 23.5624 6.65898 23.5624 9.0625V14.4039C23.5624 14.4946 23.5896 14.5816 23.6385 14.6559L26.7252 19.2868C27.0009 19.7011 27.1591 20.1825 27.1829 20.6796C27.2067 21.1768 27.0952 21.671 26.8602 22.1098C26.6253 22.5485 26.2758 22.9154 25.8489 23.1712C25.422 23.427 24.9337 23.5623 24.436 23.5625H4.56374C4.06576 23.5625 3.57712 23.4273 3.14993 23.1714C2.72274 22.9155 2.37301 22.5484 2.13804 22.1094C1.90307 21.6703 1.79167 21.1757 1.81571 20.6783C1.83975 20.1809 1.99833 19.6994 2.27455 19.285L5.36124 14.6559C5.41098 14.5813 5.43747 14.4936 5.43736 14.4039V9.0625Z" />
</svg>
