<svg width="26" height="29" viewBox="0 0 26 29" fill="none" xmlns="http://www.w3.org/2000/svg">
    <path d="M15.5556 1.47613L15.5556 1.47615L15.5593 1.47943L24.2222 9.07386C24.2228 9.07439 24.2234 9.07492 24.224 9.07545C24.6274 9.43671 24.9497 9.87935 25.1696 10.3742C25.3899 10.8698 25.5025 11.4065 25.5 11.9488V11.9511V24.5899C25.5 25.6066 25.0961 26.5816 24.3772 27.3005C23.6583 28.0194 22.6833 28.4233 21.6666 28.4233H4.33344C3.31678 28.4233 2.34177 28.0194 1.62289 27.3005C0.904002 26.5816 0.500137 25.6066 0.500137 24.5899V11.9656H0.500153L0.500121 11.9616C0.495793 11.4171 0.607509 10.878 0.827832 10.3801C1.04784 9.88285 1.37109 9.43814 1.77612 9.07545L10.4408 1.47943L10.4408 1.47945L10.4445 1.47613C11.1473 0.847523 12.0571 0.5 13 0.5C13.943 0.5 14.8528 0.847524 15.5556 1.47613ZM15.8889 26.5344H16.3889V26.0344V18.8122C16.3889 18.2965 16.1841 17.8019 15.8194 17.4373C15.4548 17.0726 14.9602 16.8678 14.4445 16.8678H11.5556C11.0399 16.8678 10.5453 17.0726 10.1807 17.4373C9.81604 17.8019 9.61118 18.2965 9.61118 18.8122V26.0344V26.5344H10.1112H15.8889ZM18.2778 26.0344V26.5344H18.7778H21.6666C22.1823 26.5344 22.6769 26.3295 23.0416 25.9649C23.4062 25.6002 23.6111 25.1056 23.6111 24.5899V11.9511V11.9505C23.6107 11.6744 23.5516 11.4016 23.4376 11.1501C23.3236 10.8987 23.1574 10.6744 22.95 10.4922L22.9492 10.4915L14.2834 2.90891C14.2832 2.90881 14.2831 2.9087 14.283 2.90859C13.9282 2.59707 13.4722 2.42526 13 2.42526C12.5279 2.42526 12.0719 2.59707 11.7171 2.90859C11.717 2.9087 11.7168 2.90881 11.7167 2.90891L3.05086 10.4915L3.05011 10.4922C2.8427 10.6744 2.67647 10.8987 2.56248 11.1501C2.44849 11.4016 2.38936 11.6744 2.38901 11.9505V11.9511V24.5899C2.38901 25.1056 2.59387 25.6002 2.95852 25.9649C3.32317 26.3295 3.81774 26.5344 4.33344 26.5344H7.22231H7.72231V26.0344V18.8122C7.72231 17.7956 8.12617 16.8205 8.84505 16.1017C9.56394 15.3828 10.539 14.9789 11.5556 14.9789H14.4445C15.4611 14.9789 16.4361 15.3828 17.155 16.1017C17.8739 16.8205 18.2778 17.7956 18.2778 18.8122V26.0344Z" />
</svg>
