<svg width="796" height="651" viewBox="0 0 796 651" fill="none" xmlns="http://www.w3.org/2000/svg">
<rect width="796" height="651" fill="#0D1117"/>
<rect x="108" y="158" width="581" height="163" stroke="#129FDB" stroke-width="3" stroke-linecap="round" stroke-linejoin="round" stroke-dasharray="10 5"/>
<rect x="73" y="108" width="651" height="384" stroke="white" stroke-opacity="0.64" stroke-width="2" stroke-linecap="round" stroke-linejoin="round" stroke-dasharray="7 7"/>
<path d="M369.843 79.6094C369.843 79.1113 369.765 78.6719 369.608 78.291C369.462 77.9004 369.198 77.5488 368.817 77.2363C368.446 76.9238 367.929 76.626 367.265 76.3428C366.61 76.0596 365.78 75.7715 364.774 75.4785C363.72 75.166 362.768 74.8193 361.918 74.4385C361.068 74.0479 360.341 73.6035 359.735 73.1055C359.13 72.6074 358.666 72.0361 358.344 71.3916C358.021 70.7471 357.86 70.0098 357.86 69.1797C357.86 68.3496 358.031 67.583 358.373 66.8799C358.715 66.1768 359.203 65.5664 359.838 65.0488C360.482 64.5215 361.249 64.1113 362.138 63.8184C363.026 63.5254 364.018 63.3789 365.111 63.3789C366.713 63.3789 368.07 63.6865 369.184 64.3018C370.307 64.9072 371.161 65.7031 371.747 66.6895C372.333 67.666 372.626 68.7109 372.626 69.8242H369.813C369.813 69.0234 369.643 68.3154 369.301 67.7002C368.959 67.0752 368.441 66.5869 367.748 66.2354C367.055 65.874 366.176 65.6934 365.111 65.6934C364.105 65.6934 363.275 65.8447 362.621 66.1475C361.967 66.4502 361.479 66.8604 361.156 67.3779C360.844 67.8955 360.688 68.4863 360.688 69.1504C360.688 69.5996 360.78 70.0098 360.966 70.3809C361.161 70.7422 361.459 71.0791 361.859 71.3916C362.27 71.7041 362.787 71.9922 363.412 72.2559C364.047 72.5195 364.804 72.7734 365.683 73.0176C366.894 73.3594 367.938 73.7402 368.817 74.1602C369.696 74.5801 370.419 75.0537 370.985 75.5811C371.562 76.0986 371.986 76.6895 372.26 77.3535C372.543 78.0078 372.685 78.75 372.685 79.5801C372.685 80.4492 372.509 81.2354 372.157 81.9385C371.806 82.6416 371.303 83.2422 370.648 83.7402C369.994 84.2383 369.208 84.624 368.29 84.8975C367.382 85.1611 366.366 85.293 365.243 85.293C364.257 85.293 363.285 85.1562 362.328 84.8828C361.381 84.6094 360.517 84.1992 359.735 83.6523C358.964 83.1055 358.344 82.4316 357.875 81.6309C357.416 80.8203 357.187 79.8828 357.187 78.8184H359.999C359.999 79.5508 360.141 80.1807 360.424 80.708C360.707 81.2256 361.093 81.6553 361.581 81.9971C362.079 82.3389 362.641 82.5928 363.266 82.7588C363.9 82.915 364.56 82.9932 365.243 82.9932C366.229 82.9932 367.064 82.8564 367.748 82.583C368.432 82.3096 368.949 81.9189 369.301 81.4111C369.662 80.9033 369.843 80.3027 369.843 79.6094ZM382.455 85.293C381.352 85.293 380.351 85.1074 379.452 84.7363C378.563 84.3555 377.797 83.8232 377.152 83.1396C376.518 82.4561 376.029 81.6455 375.688 80.708C375.346 79.7705 375.175 78.7451 375.175 77.6318V77.0166C375.175 75.7275 375.365 74.5801 375.746 73.5742C376.127 72.5586 376.645 71.6992 377.299 70.9961C377.953 70.293 378.695 69.7607 379.525 69.3994C380.355 69.0381 381.215 68.8574 382.104 68.8574C383.236 68.8574 384.213 69.0527 385.033 69.4434C385.863 69.834 386.542 70.3809 387.069 71.084C387.597 71.7773 387.987 72.5977 388.241 73.5449C388.495 74.4824 388.622 75.5078 388.622 76.6211V77.8369H376.786V75.625H385.912V75.4199C385.873 74.7168 385.727 74.0332 385.473 73.3691C385.229 72.7051 384.838 72.1582 384.301 71.7285C383.764 71.2988 383.031 71.084 382.104 71.084C381.488 71.084 380.922 71.2158 380.404 71.4795C379.887 71.7334 379.442 72.1143 379.071 72.6221C378.7 73.1299 378.412 73.75 378.207 74.4824C378.002 75.2148 377.899 76.0596 377.899 77.0166V77.6318C377.899 78.3838 378.002 79.0918 378.207 79.7559C378.422 80.4102 378.729 80.9863 379.13 81.4844C379.54 81.9824 380.033 82.373 380.609 82.6562C381.195 82.9395 381.859 83.0811 382.602 83.0811C383.559 83.0811 384.369 82.8857 385.033 82.4951C385.697 82.1045 386.278 81.582 386.776 80.9277L388.417 82.2314C388.075 82.749 387.641 83.2422 387.113 83.7109C386.586 84.1797 385.937 84.5605 385.165 84.8535C384.403 85.1465 383.5 85.293 382.455 85.293ZM394.496 71.6406V85H391.786V69.1504H394.423L394.496 71.6406ZM399.447 69.0625L399.433 71.582C399.208 71.5332 398.993 71.5039 398.788 71.4941C398.593 71.4746 398.368 71.4648 398.114 71.4648C397.489 71.4648 396.938 71.5625 396.459 71.7578C395.98 71.9531 395.575 72.2266 395.243 72.5781C394.911 72.9297 394.647 73.3496 394.452 73.8379C394.267 74.3164 394.145 74.8438 394.086 75.4199L393.324 75.8594C393.324 74.9023 393.417 74.0039 393.603 73.1641C393.798 72.3242 394.096 71.582 394.496 70.9375C394.896 70.2832 395.404 69.7754 396.02 69.4141C396.645 69.043 397.387 68.8574 398.246 68.8574C398.441 68.8574 398.666 68.8818 398.92 68.9307C399.174 68.9697 399.35 69.0137 399.447 69.0625ZM407.035 82.5537L411.371 69.1504H414.14L408.441 85H406.625L407.035 82.5537ZM403.417 69.1504L407.885 82.627L408.192 85H406.376L400.634 69.1504H403.417ZM423.119 85.293C422.016 85.293 421.015 85.1074 420.116 84.7363C419.228 84.3555 418.461 83.8232 417.816 83.1396C417.182 82.4561 416.693 81.6455 416.352 80.708C416.01 79.7705 415.839 78.7451 415.839 77.6318V77.0166C415.839 75.7275 416.029 74.5801 416.41 73.5742C416.791 72.5586 417.309 71.6992 417.963 70.9961C418.617 70.293 419.359 69.7607 420.189 69.3994C421.02 69.0381 421.879 68.8574 422.768 68.8574C423.9 68.8574 424.877 69.0527 425.697 69.4434C426.527 69.834 427.206 70.3809 427.733 71.084C428.261 71.7773 428.651 72.5977 428.905 73.5449C429.159 74.4824 429.286 75.5078 429.286 76.6211V77.8369H417.45V75.625H426.576V75.4199C426.537 74.7168 426.391 74.0332 426.137 73.3691C425.893 72.7051 425.502 72.1582 424.965 71.7285C424.428 71.2988 423.695 71.084 422.768 71.084C422.152 71.084 421.586 71.2158 421.068 71.4795C420.551 71.7334 420.106 72.1143 419.735 72.6221C419.364 73.1299 419.076 73.75 418.871 74.4824C418.666 75.2148 418.563 76.0596 418.563 77.0166V77.6318C418.563 78.3838 418.666 79.0918 418.871 79.7559C419.086 80.4102 419.394 80.9863 419.794 81.4844C420.204 81.9824 420.697 82.373 421.273 82.6562C421.859 82.9395 422.523 83.0811 423.266 83.0811C424.223 83.0811 425.033 82.8857 425.697 82.4951C426.361 82.1045 426.942 81.582 427.44 80.9277L429.081 82.2314C428.739 82.749 428.305 83.2422 427.777 83.7109C427.25 84.1797 426.601 84.5605 425.829 84.8535C425.067 85.1465 424.164 85.293 423.119 85.293ZM435.16 71.6406V85H432.45V69.1504H435.087L435.16 71.6406ZM440.111 69.0625L440.097 71.582C439.872 71.5332 439.657 71.5039 439.452 71.4941C439.257 71.4746 439.032 71.4648 438.778 71.4648C438.153 71.4648 437.602 71.5625 437.123 71.7578C436.645 71.9531 436.239 72.2266 435.907 72.5781C435.575 72.9297 435.312 73.3496 435.116 73.8379C434.931 74.3164 434.809 74.8438 434.75 75.4199L433.988 75.8594C433.988 74.9023 434.081 74.0039 434.267 73.1641C434.462 72.3242 434.76 71.582 435.16 70.9375C435.561 70.2832 436.068 69.7754 436.684 69.4141C437.309 69.043 438.051 68.8574 438.91 68.8574C439.105 68.8574 439.33 68.8818 439.584 68.9307C439.838 68.9697 440.014 69.0137 440.111 69.0625Z" fill="white"/>
<path d="M372.836 144H369.867L369.887 142.467H372.836C373.852 142.467 374.698 142.255 375.375 141.832C376.052 141.402 376.56 140.803 376.898 140.035C377.243 139.26 377.416 138.355 377.416 137.32V136.451C377.416 135.637 377.318 134.915 377.123 134.283C376.928 133.645 376.641 133.108 376.264 132.672C375.886 132.229 375.424 131.894 374.877 131.666C374.337 131.438 373.715 131.324 373.012 131.324H369.809V129.781H373.012C373.943 129.781 374.792 129.938 375.561 130.25C376.329 130.556 376.99 131.002 377.543 131.588C378.103 132.167 378.533 132.87 378.832 133.697C379.132 134.518 379.281 135.442 379.281 136.471V137.32C379.281 138.349 379.132 139.277 378.832 140.104C378.533 140.924 378.1 141.624 377.533 142.203C376.973 142.783 376.296 143.229 375.502 143.541C374.714 143.847 373.826 144 372.836 144ZM370.873 129.781V144H368.988V129.781H370.873ZM381.361 138.834V138.609C381.361 137.848 381.472 137.141 381.693 136.49C381.915 135.833 382.234 135.263 382.65 134.781C383.067 134.293 383.572 133.915 384.164 133.648C384.757 133.375 385.421 133.238 386.156 133.238C386.898 133.238 387.566 133.375 388.158 133.648C388.757 133.915 389.265 134.293 389.682 134.781C390.105 135.263 390.427 135.833 390.648 136.49C390.87 137.141 390.98 137.848 390.98 138.609V138.834C390.98 139.596 390.87 140.302 390.648 140.953C390.427 141.604 390.105 142.174 389.682 142.662C389.265 143.144 388.76 143.521 388.168 143.795C387.582 144.062 386.918 144.195 386.176 144.195C385.434 144.195 384.766 144.062 384.174 143.795C383.581 143.521 383.074 143.144 382.65 142.662C382.234 142.174 381.915 141.604 381.693 140.953C381.472 140.302 381.361 139.596 381.361 138.834ZM383.168 138.609V138.834C383.168 139.361 383.23 139.859 383.354 140.328C383.477 140.79 383.663 141.201 383.91 141.559C384.164 141.917 384.48 142.2 384.857 142.408C385.235 142.61 385.674 142.711 386.176 142.711C386.671 142.711 387.104 142.61 387.475 142.408C387.852 142.2 388.165 141.917 388.412 141.559C388.66 141.201 388.845 140.79 388.969 140.328C389.099 139.859 389.164 139.361 389.164 138.834V138.609C389.164 138.089 389.099 137.597 388.969 137.135C388.845 136.666 388.656 136.253 388.402 135.895C388.155 135.53 387.842 135.243 387.465 135.035C387.094 134.827 386.658 134.723 386.156 134.723C385.661 134.723 385.225 134.827 384.848 135.035C384.477 135.243 384.164 135.53 383.91 135.895C383.663 136.253 383.477 136.666 383.354 137.135C383.23 137.597 383.168 138.089 383.168 138.609ZM397.475 142.711C397.904 142.711 398.301 142.623 398.666 142.447C399.031 142.271 399.33 142.031 399.564 141.725C399.799 141.412 399.932 141.057 399.965 140.66H401.684C401.651 141.285 401.439 141.868 401.049 142.408C400.665 142.942 400.16 143.375 399.535 143.707C398.91 144.033 398.223 144.195 397.475 144.195C396.68 144.195 395.987 144.055 395.395 143.775C394.809 143.495 394.32 143.111 393.93 142.623C393.546 142.135 393.256 141.575 393.061 140.943C392.872 140.305 392.777 139.632 392.777 138.922V138.512C392.777 137.802 392.872 137.132 393.061 136.5C393.256 135.862 393.546 135.299 393.93 134.811C394.32 134.322 394.809 133.938 395.395 133.658C395.987 133.378 396.68 133.238 397.475 133.238C398.301 133.238 399.024 133.408 399.643 133.746C400.261 134.078 400.746 134.534 401.098 135.113C401.456 135.686 401.651 136.337 401.684 137.066H399.965C399.932 136.63 399.809 136.236 399.594 135.885C399.385 135.533 399.099 135.253 398.734 135.045C398.376 134.83 397.956 134.723 397.475 134.723C396.921 134.723 396.456 134.833 396.078 135.055C395.707 135.27 395.411 135.562 395.189 135.934C394.975 136.298 394.818 136.705 394.721 137.154C394.63 137.597 394.584 138.049 394.584 138.512V138.922C394.584 139.384 394.63 139.84 394.721 140.289C394.812 140.738 394.965 141.145 395.18 141.51C395.401 141.874 395.697 142.167 396.068 142.389C396.446 142.604 396.915 142.711 397.475 142.711ZM405.531 129V144H403.715V129H405.531ZM411.986 133.434L407.377 138.365L404.799 141.041L404.652 139.117L406.498 136.91L409.779 133.434H411.986ZM410.336 144L406.566 138.961L407.504 137.35L412.465 144H410.336ZM418.041 144.195C417.305 144.195 416.638 144.072 416.039 143.824C415.447 143.57 414.936 143.215 414.506 142.76C414.083 142.304 413.757 141.764 413.529 141.139C413.301 140.514 413.188 139.83 413.188 139.088V138.678C413.188 137.818 413.314 137.053 413.568 136.383C413.822 135.706 414.167 135.133 414.604 134.664C415.04 134.195 415.535 133.84 416.088 133.6C416.641 133.359 417.214 133.238 417.807 133.238C418.562 133.238 419.213 133.368 419.76 133.629C420.313 133.889 420.766 134.254 421.117 134.723C421.469 135.185 421.729 135.732 421.898 136.363C422.068 136.988 422.152 137.672 422.152 138.414V139.225H414.262V137.75H420.346V137.613C420.32 137.145 420.222 136.689 420.053 136.246C419.89 135.803 419.63 135.439 419.271 135.152C418.913 134.866 418.425 134.723 417.807 134.723C417.396 134.723 417.019 134.811 416.674 134.986C416.329 135.156 416.033 135.41 415.785 135.748C415.538 136.087 415.346 136.5 415.209 136.988C415.072 137.477 415.004 138.04 415.004 138.678V139.088C415.004 139.589 415.072 140.061 415.209 140.504C415.352 140.94 415.557 141.324 415.824 141.656C416.098 141.988 416.426 142.249 416.811 142.438C417.201 142.626 417.644 142.721 418.139 142.721C418.777 142.721 419.317 142.59 419.76 142.33C420.202 142.07 420.59 141.721 420.922 141.285L422.016 142.154C421.788 142.499 421.498 142.828 421.146 143.141C420.795 143.453 420.362 143.707 419.848 143.902C419.34 144.098 418.738 144.195 418.041 144.195ZM426.068 135.094V144H424.262V133.434H426.02L426.068 135.094ZM429.369 133.375L429.359 135.055C429.21 135.022 429.066 135.003 428.93 134.996C428.799 134.983 428.65 134.977 428.48 134.977C428.064 134.977 427.696 135.042 427.377 135.172C427.058 135.302 426.788 135.484 426.566 135.719C426.345 135.953 426.169 136.233 426.039 136.559C425.915 136.878 425.834 137.229 425.795 137.613L425.287 137.906C425.287 137.268 425.349 136.669 425.473 136.109C425.603 135.549 425.801 135.055 426.068 134.625C426.335 134.189 426.674 133.85 427.084 133.609C427.501 133.362 427.995 133.238 428.568 133.238C428.699 133.238 428.848 133.255 429.018 133.287C429.187 133.313 429.304 133.342 429.369 133.375Z" fill="white"/>
<path d="M375.352 581.218H378.164C378.018 582.565 377.632 583.771 377.007 584.836C376.382 585.9 375.498 586.745 374.355 587.37C373.213 587.985 371.787 588.293 370.078 588.293C368.828 588.293 367.69 588.059 366.665 587.59C365.649 587.121 364.775 586.457 364.043 585.598C363.311 584.729 362.744 583.688 362.344 582.478C361.953 581.257 361.758 579.899 361.758 578.405V576.281C361.758 574.787 361.953 573.435 362.344 572.224C362.744 571.003 363.315 569.958 364.058 569.089C364.81 568.22 365.713 567.551 366.768 567.082C367.822 566.613 369.009 566.379 370.327 566.379C371.938 566.379 373.301 566.682 374.414 567.287C375.527 567.893 376.392 568.732 377.007 569.807C377.632 570.871 378.018 572.106 378.164 573.513H375.352C375.215 572.517 374.961 571.662 374.59 570.949C374.219 570.227 373.691 569.67 373.008 569.279C372.324 568.889 371.431 568.693 370.327 568.693C369.38 568.693 368.545 568.874 367.822 569.235C367.109 569.597 366.509 570.109 366.021 570.773C365.542 571.438 365.181 572.233 364.937 573.161C364.692 574.089 364.57 575.119 364.57 576.252V578.405C364.57 579.45 364.678 580.432 364.893 581.35C365.117 582.268 365.454 583.073 365.903 583.767C366.353 584.46 366.924 585.007 367.617 585.407C368.311 585.798 369.131 585.993 370.078 585.993C371.279 585.993 372.236 585.803 372.949 585.422C373.662 585.041 374.199 584.494 374.561 583.781C374.932 583.068 375.195 582.214 375.352 581.218ZM384.551 565.5V588H381.826V565.5H384.551ZM391.846 572.15V588H389.121V572.15H391.846ZM388.916 567.946C388.916 567.507 389.048 567.136 389.312 566.833C389.585 566.53 389.985 566.379 390.513 566.379C391.03 566.379 391.426 566.53 391.699 566.833C391.982 567.136 392.124 567.507 392.124 567.946C392.124 568.366 391.982 568.728 391.699 569.03C391.426 569.323 391.03 569.47 390.513 569.47C389.985 569.47 389.585 569.323 389.312 569.03C389.048 568.728 388.916 568.366 388.916 567.946ZM402.773 588.293C401.67 588.293 400.669 588.107 399.771 587.736C398.882 587.355 398.115 586.823 397.471 586.14C396.836 585.456 396.348 584.646 396.006 583.708C395.664 582.771 395.493 581.745 395.493 580.632V580.017C395.493 578.728 395.684 577.58 396.064 576.574C396.445 575.559 396.963 574.699 397.617 573.996C398.271 573.293 399.014 572.761 399.844 572.399C400.674 572.038 401.533 571.857 402.422 571.857C403.555 571.857 404.531 572.053 405.352 572.443C406.182 572.834 406.86 573.381 407.388 574.084C407.915 574.777 408.306 575.598 408.56 576.545C408.813 577.482 408.94 578.508 408.94 579.621V580.837H397.104V578.625H406.23V578.42C406.191 577.717 406.045 577.033 405.791 576.369C405.547 575.705 405.156 575.158 404.619 574.729C404.082 574.299 403.35 574.084 402.422 574.084C401.807 574.084 401.24 574.216 400.723 574.479C400.205 574.733 399.761 575.114 399.39 575.622C399.019 576.13 398.73 576.75 398.525 577.482C398.32 578.215 398.218 579.06 398.218 580.017V580.632C398.218 581.384 398.32 582.092 398.525 582.756C398.74 583.41 399.048 583.986 399.448 584.484C399.858 584.982 400.352 585.373 400.928 585.656C401.514 585.939 402.178 586.081 402.92 586.081C403.877 586.081 404.688 585.886 405.352 585.495C406.016 585.104 406.597 584.582 407.095 583.928L408.735 585.231C408.394 585.749 407.959 586.242 407.432 586.711C406.904 587.18 406.255 587.561 405.483 587.854C404.722 588.146 403.818 588.293 402.773 588.293ZM414.814 575.534V588H412.104V572.15H414.668L414.814 575.534ZM414.17 579.475L413.042 579.431C413.052 578.347 413.213 577.346 413.525 576.428C413.838 575.5 414.277 574.694 414.844 574.011C415.41 573.327 416.084 572.8 416.865 572.429C417.656 572.048 418.53 571.857 419.487 571.857C420.269 571.857 420.972 571.965 421.597 572.18C422.222 572.385 422.754 572.717 423.193 573.176C423.643 573.635 423.984 574.23 424.219 574.963C424.453 575.686 424.57 576.569 424.57 577.614V588H421.846V577.585C421.846 576.755 421.724 576.091 421.479 575.593C421.235 575.085 420.879 574.719 420.41 574.494C419.941 574.26 419.365 574.143 418.682 574.143C418.008 574.143 417.393 574.284 416.836 574.567C416.289 574.851 415.815 575.241 415.415 575.739C415.024 576.237 414.717 576.809 414.492 577.453C414.277 578.088 414.17 578.762 414.17 579.475ZM435.322 572.15V574.23H426.753V572.15H435.322ZM429.653 568.298H432.363V584.074C432.363 584.611 432.446 585.017 432.612 585.29C432.778 585.563 432.993 585.744 433.257 585.832C433.521 585.92 433.804 585.964 434.106 585.964C434.331 585.964 434.565 585.944 434.81 585.905C435.063 585.856 435.254 585.817 435.381 585.788L435.396 588C435.181 588.068 434.897 588.132 434.546 588.19C434.204 588.259 433.789 588.293 433.301 588.293C432.637 588.293 432.026 588.161 431.47 587.897C430.913 587.634 430.469 587.194 430.137 586.579C429.814 585.954 429.653 585.114 429.653 584.06V568.298Z" fill="white"/>
<path d="M192.398 245H190.023L190.039 243.773H192.398C193.211 243.773 193.888 243.604 194.43 243.266C194.971 242.922 195.378 242.443 195.648 241.828C195.924 241.208 196.062 240.484 196.062 239.656V238.961C196.062 238.31 195.984 237.732 195.828 237.227C195.672 236.716 195.443 236.286 195.141 235.938C194.839 235.583 194.469 235.315 194.031 235.133C193.599 234.951 193.102 234.859 192.539 234.859H189.977V233.625H192.539C193.284 233.625 193.964 233.75 194.578 234C195.193 234.245 195.721 234.602 196.164 235.07C196.612 235.534 196.956 236.096 197.195 236.758C197.435 237.414 197.555 238.154 197.555 238.977V239.656C197.555 240.479 197.435 241.221 197.195 241.883C196.956 242.539 196.609 243.099 196.156 243.562C195.708 244.026 195.167 244.383 194.531 244.633C193.901 244.878 193.19 245 192.398 245ZM190.828 233.625V245H189.32V233.625H190.828ZM204.586 243.555V239.203C204.586 238.87 204.518 238.581 204.383 238.336C204.253 238.086 204.055 237.893 203.789 237.758C203.523 237.622 203.195 237.555 202.805 237.555C202.44 237.555 202.12 237.617 201.844 237.742C201.573 237.867 201.359 238.031 201.203 238.234C201.052 238.438 200.977 238.656 200.977 238.891H199.531C199.531 238.589 199.609 238.289 199.766 237.992C199.922 237.695 200.146 237.427 200.438 237.188C200.734 236.943 201.089 236.75 201.5 236.609C201.917 236.464 202.38 236.391 202.891 236.391C203.505 236.391 204.047 236.495 204.516 236.703C204.99 236.911 205.359 237.227 205.625 237.648C205.896 238.065 206.031 238.589 206.031 239.219V243.156C206.031 243.438 206.055 243.737 206.102 244.055C206.154 244.372 206.229 244.646 206.328 244.875V245H204.82C204.747 244.833 204.69 244.612 204.648 244.336C204.607 244.055 204.586 243.794 204.586 243.555ZM204.836 239.875L204.852 240.891H203.391C202.979 240.891 202.612 240.924 202.289 240.992C201.966 241.055 201.695 241.151 201.477 241.281C201.258 241.411 201.091 241.576 200.977 241.773C200.862 241.966 200.805 242.193 200.805 242.453C200.805 242.719 200.865 242.961 200.984 243.18C201.104 243.398 201.284 243.573 201.523 243.703C201.768 243.828 202.068 243.891 202.422 243.891C202.865 243.891 203.255 243.797 203.594 243.609C203.932 243.422 204.201 243.193 204.398 242.922C204.602 242.651 204.711 242.388 204.727 242.133L205.344 242.828C205.307 243.047 205.208 243.289 205.047 243.555C204.885 243.82 204.669 244.076 204.398 244.32C204.133 244.56 203.815 244.76 203.445 244.922C203.081 245.078 202.669 245.156 202.211 245.156C201.638 245.156 201.135 245.044 200.703 244.82C200.276 244.596 199.943 244.297 199.703 243.922C199.469 243.542 199.352 243.117 199.352 242.648C199.352 242.195 199.44 241.797 199.617 241.453C199.794 241.104 200.049 240.815 200.383 240.586C200.716 240.352 201.117 240.174 201.586 240.055C202.055 239.935 202.578 239.875 203.156 239.875H204.836ZM211.844 236.547V237.656H207.273V236.547H211.844ZM208.82 234.492H210.266V242.906C210.266 243.193 210.31 243.409 210.398 243.555C210.487 243.701 210.602 243.797 210.742 243.844C210.883 243.891 211.034 243.914 211.195 243.914C211.315 243.914 211.44 243.904 211.57 243.883C211.706 243.857 211.807 243.836 211.875 243.82L211.883 245C211.768 245.036 211.617 245.07 211.43 245.102C211.247 245.138 211.026 245.156 210.766 245.156C210.411 245.156 210.086 245.086 209.789 244.945C209.492 244.805 209.255 244.57 209.078 244.242C208.906 243.909 208.82 243.461 208.82 242.898V234.492ZM218.523 243.555V239.203C218.523 238.87 218.456 238.581 218.32 238.336C218.19 238.086 217.992 237.893 217.727 237.758C217.461 237.622 217.133 237.555 216.742 237.555C216.378 237.555 216.057 237.617 215.781 237.742C215.51 237.867 215.297 238.031 215.141 238.234C214.99 238.438 214.914 238.656 214.914 238.891H213.469C213.469 238.589 213.547 238.289 213.703 237.992C213.859 237.695 214.083 237.427 214.375 237.188C214.672 236.943 215.026 236.75 215.438 236.609C215.854 236.464 216.318 236.391 216.828 236.391C217.443 236.391 217.984 236.495 218.453 236.703C218.927 236.911 219.297 237.227 219.562 237.648C219.833 238.065 219.969 238.589 219.969 239.219V243.156C219.969 243.438 219.992 243.737 220.039 244.055C220.091 244.372 220.167 244.646 220.266 244.875V245H218.758C218.685 244.833 218.628 244.612 218.586 244.336C218.544 244.055 218.523 243.794 218.523 243.555ZM218.773 239.875L218.789 240.891H217.328C216.917 240.891 216.549 240.924 216.227 240.992C215.904 241.055 215.633 241.151 215.414 241.281C215.195 241.411 215.029 241.576 214.914 241.773C214.799 241.966 214.742 242.193 214.742 242.453C214.742 242.719 214.802 242.961 214.922 243.18C215.042 243.398 215.221 243.573 215.461 243.703C215.706 243.828 216.005 243.891 216.359 243.891C216.802 243.891 217.193 243.797 217.531 243.609C217.87 243.422 218.138 243.193 218.336 242.922C218.539 242.651 218.648 242.388 218.664 242.133L219.281 242.828C219.245 243.047 219.146 243.289 218.984 243.555C218.823 243.82 218.607 244.076 218.336 244.32C218.07 244.56 217.753 244.76 217.383 244.922C217.018 245.078 216.607 245.156 216.148 245.156C215.576 245.156 215.073 245.044 214.641 244.82C214.214 244.596 213.88 244.297 213.641 243.922C213.406 243.542 213.289 243.117 213.289 242.648C213.289 242.195 213.378 241.797 213.555 241.453C213.732 241.104 213.987 240.815 214.32 240.586C214.654 240.352 215.055 240.174 215.523 240.055C215.992 239.935 216.516 239.875 217.094 239.875H218.773ZM222.234 233H223.688V243.359L223.562 245H222.234V233ZM229.398 240.703V240.867C229.398 241.482 229.326 242.052 229.18 242.578C229.034 243.099 228.82 243.552 228.539 243.938C228.258 244.323 227.914 244.622 227.508 244.836C227.102 245.049 226.635 245.156 226.109 245.156C225.573 245.156 225.102 245.065 224.695 244.883C224.294 244.695 223.956 244.427 223.68 244.078C223.404 243.729 223.182 243.307 223.016 242.812C222.854 242.318 222.742 241.76 222.68 241.141V240.422C222.742 239.797 222.854 239.237 223.016 238.742C223.182 238.247 223.404 237.826 223.68 237.477C223.956 237.122 224.294 236.854 224.695 236.672C225.096 236.484 225.562 236.391 226.094 236.391C226.625 236.391 227.096 236.495 227.508 236.703C227.919 236.906 228.263 237.198 228.539 237.578C228.82 237.958 229.034 238.414 229.18 238.945C229.326 239.471 229.398 240.057 229.398 240.703ZM227.945 240.867V240.703C227.945 240.281 227.906 239.885 227.828 239.516C227.75 239.141 227.625 238.812 227.453 238.531C227.281 238.245 227.055 238.021 226.773 237.859C226.492 237.693 226.146 237.609 225.734 237.609C225.37 237.609 225.052 237.672 224.781 237.797C224.516 237.922 224.289 238.091 224.102 238.305C223.914 238.513 223.76 238.753 223.641 239.023C223.526 239.289 223.44 239.565 223.383 239.852V241.734C223.466 242.099 223.602 242.451 223.789 242.789C223.982 243.122 224.237 243.396 224.555 243.609C224.878 243.823 225.276 243.93 225.75 243.93C226.141 243.93 226.474 243.852 226.75 243.695C227.031 243.534 227.258 243.312 227.43 243.031C227.607 242.75 227.737 242.424 227.82 242.055C227.904 241.685 227.945 241.289 227.945 240.867ZM236.211 243.555V239.203C236.211 238.87 236.143 238.581 236.008 238.336C235.878 238.086 235.68 237.893 235.414 237.758C235.148 237.622 234.82 237.555 234.43 237.555C234.065 237.555 233.745 237.617 233.469 237.742C233.198 237.867 232.984 238.031 232.828 238.234C232.677 238.438 232.602 238.656 232.602 238.891H231.156C231.156 238.589 231.234 238.289 231.391 237.992C231.547 237.695 231.771 237.427 232.062 237.188C232.359 236.943 232.714 236.75 233.125 236.609C233.542 236.464 234.005 236.391 234.516 236.391C235.13 236.391 235.672 236.495 236.141 236.703C236.615 236.911 236.984 237.227 237.25 237.648C237.521 238.065 237.656 238.589 237.656 239.219V243.156C237.656 243.438 237.68 243.737 237.727 244.055C237.779 244.372 237.854 244.646 237.953 244.875V245H236.445C236.372 244.833 236.315 244.612 236.273 244.336C236.232 244.055 236.211 243.794 236.211 243.555ZM236.461 239.875L236.477 240.891H235.016C234.604 240.891 234.237 240.924 233.914 240.992C233.591 241.055 233.32 241.151 233.102 241.281C232.883 241.411 232.716 241.576 232.602 241.773C232.487 241.966 232.43 242.193 232.43 242.453C232.43 242.719 232.49 242.961 232.609 243.18C232.729 243.398 232.909 243.573 233.148 243.703C233.393 243.828 233.693 243.891 234.047 243.891C234.49 243.891 234.88 243.797 235.219 243.609C235.557 243.422 235.826 243.193 236.023 242.922C236.227 242.651 236.336 242.388 236.352 242.133L236.969 242.828C236.932 243.047 236.833 243.289 236.672 243.555C236.51 243.82 236.294 244.076 236.023 244.32C235.758 244.56 235.44 244.76 235.07 244.922C234.706 245.078 234.294 245.156 233.836 245.156C233.263 245.156 232.76 245.044 232.328 244.82C231.901 244.596 231.568 244.297 231.328 243.922C231.094 243.542 230.977 243.117 230.977 242.648C230.977 242.195 231.065 241.797 231.242 241.453C231.419 241.104 231.674 240.815 232.008 240.586C232.341 240.352 232.742 240.174 233.211 240.055C233.68 239.935 234.203 239.875 234.781 239.875H236.461ZM244.852 242.758C244.852 242.549 244.805 242.357 244.711 242.18C244.622 241.997 244.438 241.833 244.156 241.688C243.88 241.536 243.464 241.406 242.906 241.297C242.438 241.198 242.013 241.081 241.633 240.945C241.258 240.81 240.938 240.646 240.672 240.453C240.411 240.26 240.211 240.034 240.07 239.773C239.93 239.513 239.859 239.208 239.859 238.859C239.859 238.526 239.932 238.211 240.078 237.914C240.229 237.617 240.44 237.354 240.711 237.125C240.987 236.896 241.318 236.716 241.703 236.586C242.089 236.456 242.518 236.391 242.992 236.391C243.669 236.391 244.247 236.51 244.727 236.75C245.206 236.99 245.573 237.31 245.828 237.711C246.083 238.107 246.211 238.547 246.211 239.031H244.766C244.766 238.797 244.695 238.57 244.555 238.352C244.419 238.128 244.219 237.943 243.953 237.797C243.693 237.651 243.372 237.578 242.992 237.578C242.591 237.578 242.266 237.641 242.016 237.766C241.771 237.885 241.591 238.039 241.477 238.227C241.367 238.414 241.312 238.612 241.312 238.82C241.312 238.977 241.339 239.117 241.391 239.242C241.448 239.362 241.547 239.474 241.688 239.578C241.828 239.677 242.026 239.771 242.281 239.859C242.536 239.948 242.862 240.036 243.258 240.125C243.951 240.281 244.521 240.469 244.969 240.688C245.417 240.906 245.75 241.174 245.969 241.492C246.188 241.81 246.297 242.195 246.297 242.648C246.297 243.018 246.219 243.357 246.062 243.664C245.911 243.971 245.69 244.237 245.398 244.461C245.112 244.68 244.768 244.852 244.367 244.977C243.971 245.096 243.526 245.156 243.031 245.156C242.286 245.156 241.656 245.023 241.141 244.758C240.625 244.492 240.234 244.148 239.969 243.727C239.703 243.305 239.57 242.859 239.57 242.391H241.023C241.044 242.786 241.159 243.102 241.367 243.336C241.576 243.565 241.831 243.729 242.133 243.828C242.435 243.922 242.734 243.969 243.031 243.969C243.427 243.969 243.758 243.917 244.023 243.812C244.294 243.708 244.5 243.565 244.641 243.383C244.781 243.201 244.852 242.992 244.852 242.758ZM251.703 245.156C251.115 245.156 250.581 245.057 250.102 244.859C249.628 244.656 249.219 244.372 248.875 244.008C248.536 243.643 248.276 243.211 248.094 242.711C247.911 242.211 247.82 241.664 247.82 241.07V240.742C247.82 240.055 247.922 239.443 248.125 238.906C248.328 238.365 248.604 237.906 248.953 237.531C249.302 237.156 249.698 236.872 250.141 236.68C250.583 236.487 251.042 236.391 251.516 236.391C252.12 236.391 252.641 236.495 253.078 236.703C253.521 236.911 253.883 237.203 254.164 237.578C254.445 237.948 254.654 238.385 254.789 238.891C254.924 239.391 254.992 239.938 254.992 240.531V241.18H248.68V240H253.547V239.891C253.526 239.516 253.448 239.151 253.312 238.797C253.182 238.443 252.974 238.151 252.688 237.922C252.401 237.693 252.01 237.578 251.516 237.578C251.188 237.578 250.885 237.648 250.609 237.789C250.333 237.924 250.096 238.128 249.898 238.398C249.701 238.669 249.547 239 249.438 239.391C249.328 239.781 249.273 240.232 249.273 240.742V241.07C249.273 241.471 249.328 241.849 249.438 242.203C249.552 242.552 249.716 242.859 249.93 243.125C250.148 243.391 250.411 243.599 250.719 243.75C251.031 243.901 251.385 243.977 251.781 243.977C252.292 243.977 252.724 243.872 253.078 243.664C253.432 243.456 253.742 243.177 254.008 242.828L254.883 243.523C254.701 243.799 254.469 244.062 254.188 244.312C253.906 244.562 253.56 244.766 253.148 244.922C252.742 245.078 252.26 245.156 251.703 245.156Z" fill="white"/>
<rect x="157" y="209" width="130" height="61" stroke="white" stroke-width="2" stroke-linejoin="round"/>
<path d="M391.531 234.633L387.766 245H386.227L390.562 233.625H391.555L391.531 234.633ZM394.688 245L390.914 234.633L390.891 233.625H391.883L396.234 245H394.688ZM394.492 240.789V242.023H388.102V240.789H394.492ZM401.953 240.539H398.914V239.312H401.953C402.542 239.312 403.018 239.219 403.383 239.031C403.747 238.844 404.013 238.583 404.18 238.25C404.352 237.917 404.438 237.536 404.438 237.109C404.438 236.719 404.352 236.352 404.18 236.008C404.013 235.664 403.747 235.388 403.383 235.18C403.018 234.966 402.542 234.859 401.953 234.859H399.266V245H397.758V233.625H401.953C402.812 233.625 403.539 233.773 404.133 234.07C404.727 234.367 405.177 234.779 405.484 235.305C405.792 235.826 405.945 236.422 405.945 237.094C405.945 237.823 405.792 238.445 405.484 238.961C405.177 239.477 404.727 239.87 404.133 240.141C403.539 240.406 402.812 240.539 401.953 240.539ZM409.469 233.625V245H407.961V233.625H409.469Z" fill="white"/>
<rect x="355" y="209" width="87" height="61" stroke="white" stroke-width="2" stroke-linejoin="round"/>
<path d="M388.07 395.625V407H386.555L380.828 398.227V407H379.32V395.625H380.828L386.578 404.422V395.625H388.07ZM396 398.547H397.312V406.82C397.312 407.565 397.161 408.201 396.859 408.727C396.557 409.253 396.135 409.651 395.594 409.922C395.057 410.198 394.438 410.336 393.734 410.336C393.443 410.336 393.099 410.289 392.703 410.195C392.312 410.107 391.927 409.953 391.547 409.734C391.172 409.521 390.857 409.232 390.602 408.867L391.359 408.008C391.714 408.435 392.083 408.732 392.469 408.898C392.859 409.065 393.245 409.148 393.625 409.148C394.083 409.148 394.479 409.062 394.812 408.891C395.146 408.719 395.404 408.464 395.586 408.125C395.773 407.792 395.867 407.38 395.867 406.891V400.406L396 398.547ZM390.18 402.867V402.703C390.18 402.057 390.255 401.471 390.406 400.945C390.562 400.414 390.784 399.958 391.07 399.578C391.362 399.198 391.714 398.906 392.125 398.703C392.536 398.495 393 398.391 393.516 398.391C394.047 398.391 394.51 398.484 394.906 398.672C395.307 398.854 395.646 399.122 395.922 399.477C396.203 399.826 396.424 400.247 396.586 400.742C396.747 401.237 396.859 401.797 396.922 402.422V403.141C396.865 403.76 396.753 404.318 396.586 404.812C396.424 405.307 396.203 405.729 395.922 406.078C395.646 406.427 395.307 406.695 394.906 406.883C394.505 407.065 394.036 407.156 393.5 407.156C392.995 407.156 392.536 407.049 392.125 406.836C391.719 406.622 391.37 406.323 391.078 405.938C390.786 405.552 390.562 405.099 390.406 404.578C390.255 404.052 390.18 403.482 390.18 402.867ZM391.625 402.703V402.867C391.625 403.289 391.667 403.685 391.75 404.055C391.839 404.424 391.971 404.75 392.148 405.031C392.331 405.312 392.562 405.534 392.844 405.695C393.125 405.852 393.461 405.93 393.852 405.93C394.331 405.93 394.727 405.828 395.039 405.625C395.352 405.422 395.599 405.154 395.781 404.82C395.969 404.487 396.115 404.125 396.219 403.734V401.852C396.161 401.565 396.073 401.289 395.953 401.023C395.839 400.753 395.688 400.513 395.5 400.305C395.318 400.091 395.091 399.922 394.82 399.797C394.549 399.672 394.232 399.609 393.867 399.609C393.471 399.609 393.13 399.693 392.844 399.859C392.562 400.021 392.331 400.245 392.148 400.531C391.971 400.812 391.839 401.141 391.75 401.516C391.667 401.885 391.625 402.281 391.625 402.703ZM401.078 398.547V407H399.625V398.547H401.078ZM399.516 396.305C399.516 396.07 399.586 395.872 399.727 395.711C399.872 395.549 400.086 395.469 400.367 395.469C400.643 395.469 400.854 395.549 401 395.711C401.151 395.872 401.227 396.07 401.227 396.305C401.227 396.529 401.151 396.721 401 396.883C400.854 397.039 400.643 397.117 400.367 397.117C400.086 397.117 399.872 397.039 399.727 396.883C399.586 396.721 399.516 396.529 399.516 396.305ZM404.844 400.352V407H403.398V398.547H404.766L404.844 400.352ZM404.5 402.453L403.898 402.43C403.904 401.852 403.99 401.318 404.156 400.828C404.323 400.333 404.557 399.904 404.859 399.539C405.161 399.174 405.521 398.893 405.938 398.695C406.359 398.492 406.826 398.391 407.336 398.391C407.753 398.391 408.128 398.448 408.461 398.562C408.794 398.672 409.078 398.849 409.312 399.094C409.552 399.339 409.734 399.656 409.859 400.047C409.984 400.432 410.047 400.904 410.047 401.461V407H408.594V401.445C408.594 401.003 408.529 400.648 408.398 400.383C408.268 400.112 408.078 399.917 407.828 399.797C407.578 399.672 407.271 399.609 406.906 399.609C406.547 399.609 406.219 399.685 405.922 399.836C405.63 399.987 405.378 400.195 405.164 400.461C404.956 400.727 404.792 401.031 404.672 401.375C404.557 401.714 404.5 402.073 404.5 402.453ZM413.219 398.547L415.07 401.625L416.945 398.547H418.641L415.875 402.719L418.727 407H417.055L415.102 403.828L413.148 407H411.469L414.312 402.719L411.555 398.547H413.219Z" fill="white"/>
<rect x="347" y="371" width="104" height="61" stroke="white" stroke-width="2" stroke-linejoin="round"/>
<path d="M543.828 233.625V245H542.32V233.625H543.828ZM548.594 238.742V239.977H543.5V238.742H548.594ZM549.367 233.625V234.859H543.5V233.625H549.367ZM552.188 237.875V245H550.742V236.547H552.148L552.188 237.875ZM554.828 236.5L554.82 237.844C554.701 237.818 554.586 237.802 554.477 237.797C554.372 237.786 554.253 237.781 554.117 237.781C553.784 237.781 553.49 237.833 553.234 237.938C552.979 238.042 552.763 238.188 552.586 238.375C552.409 238.562 552.268 238.786 552.164 239.047C552.065 239.302 552 239.583 551.969 239.891L551.562 240.125C551.562 239.615 551.612 239.135 551.711 238.688C551.815 238.24 551.974 237.844 552.188 237.5C552.401 237.151 552.672 236.88 553 236.688C553.333 236.49 553.729 236.391 554.188 236.391C554.292 236.391 554.411 236.404 554.547 236.43C554.682 236.451 554.776 236.474 554.828 236.5ZM555.625 240.867V240.688C555.625 240.078 555.714 239.513 555.891 238.992C556.068 238.466 556.323 238.01 556.656 237.625C556.99 237.234 557.393 236.932 557.867 236.719C558.341 236.5 558.872 236.391 559.461 236.391C560.055 236.391 560.589 236.5 561.062 236.719C561.542 236.932 561.948 237.234 562.281 237.625C562.62 238.01 562.878 238.466 563.055 238.992C563.232 239.513 563.32 240.078 563.32 240.688V240.867C563.32 241.477 563.232 242.042 563.055 242.562C562.878 243.083 562.62 243.539 562.281 243.93C561.948 244.315 561.544 244.617 561.07 244.836C560.602 245.049 560.07 245.156 559.477 245.156C558.883 245.156 558.349 245.049 557.875 244.836C557.401 244.617 556.995 244.315 556.656 243.93C556.323 243.539 556.068 243.083 555.891 242.562C555.714 242.042 555.625 241.477 555.625 240.867ZM557.07 240.688V240.867C557.07 241.289 557.12 241.688 557.219 242.062C557.318 242.432 557.466 242.76 557.664 243.047C557.867 243.333 558.12 243.56 558.422 243.727C558.724 243.888 559.076 243.969 559.477 243.969C559.872 243.969 560.219 243.888 560.516 243.727C560.818 243.56 561.068 243.333 561.266 243.047C561.464 242.76 561.612 242.432 561.711 242.062C561.815 241.688 561.867 241.289 561.867 240.867V240.688C561.867 240.271 561.815 239.878 561.711 239.508C561.612 239.133 561.461 238.802 561.258 238.516C561.06 238.224 560.81 237.995 560.508 237.828C560.211 237.661 559.862 237.578 559.461 237.578C559.065 237.578 558.716 237.661 558.414 237.828C558.117 237.995 557.867 238.224 557.664 238.516C557.466 238.802 557.318 239.133 557.219 239.508C557.12 239.878 557.07 240.271 557.07 240.688ZM566.578 238.352V245H565.133V236.547H566.5L566.578 238.352ZM566.234 240.453L565.633 240.43C565.638 239.852 565.724 239.318 565.891 238.828C566.057 238.333 566.292 237.904 566.594 237.539C566.896 237.174 567.255 236.893 567.672 236.695C568.094 236.492 568.56 236.391 569.07 236.391C569.487 236.391 569.862 236.448 570.195 236.562C570.529 236.672 570.812 236.849 571.047 237.094C571.286 237.339 571.469 237.656 571.594 238.047C571.719 238.432 571.781 238.904 571.781 239.461V245H570.328V239.445C570.328 239.003 570.263 238.648 570.133 238.383C570.003 238.112 569.812 237.917 569.562 237.797C569.312 237.672 569.005 237.609 568.641 237.609C568.281 237.609 567.953 237.685 567.656 237.836C567.365 237.987 567.112 238.195 566.898 238.461C566.69 238.727 566.526 239.031 566.406 239.375C566.292 239.714 566.234 240.073 566.234 240.453ZM577.516 236.547V237.656H572.945V236.547H577.516ZM574.492 234.492H575.938V242.906C575.938 243.193 575.982 243.409 576.07 243.555C576.159 243.701 576.273 243.797 576.414 243.844C576.555 243.891 576.706 243.914 576.867 243.914C576.987 243.914 577.112 243.904 577.242 243.883C577.378 243.857 577.479 243.836 577.547 243.82L577.555 245C577.44 245.036 577.289 245.07 577.102 245.102C576.919 245.138 576.698 245.156 576.438 245.156C576.083 245.156 575.758 245.086 575.461 244.945C575.164 244.805 574.927 244.57 574.75 244.242C574.578 243.909 574.492 243.461 574.492 242.898V234.492ZM582.719 245.156C582.13 245.156 581.596 245.057 581.117 244.859C580.643 244.656 580.234 244.372 579.891 244.008C579.552 243.643 579.292 243.211 579.109 242.711C578.927 242.211 578.836 241.664 578.836 241.07V240.742C578.836 240.055 578.938 239.443 579.141 238.906C579.344 238.365 579.62 237.906 579.969 237.531C580.318 237.156 580.714 236.872 581.156 236.68C581.599 236.487 582.057 236.391 582.531 236.391C583.135 236.391 583.656 236.495 584.094 236.703C584.536 236.911 584.898 237.203 585.18 237.578C585.461 237.948 585.669 238.385 585.805 238.891C585.94 239.391 586.008 239.938 586.008 240.531V241.18H579.695V240H584.562V239.891C584.542 239.516 584.464 239.151 584.328 238.797C584.198 238.443 583.99 238.151 583.703 237.922C583.417 237.693 583.026 237.578 582.531 237.578C582.203 237.578 581.901 237.648 581.625 237.789C581.349 237.924 581.112 238.128 580.914 238.398C580.716 238.669 580.562 239 580.453 239.391C580.344 239.781 580.289 240.232 580.289 240.742V241.07C580.289 241.471 580.344 241.849 580.453 242.203C580.568 242.552 580.732 242.859 580.945 243.125C581.164 243.391 581.427 243.599 581.734 243.75C582.047 243.901 582.401 243.977 582.797 243.977C583.307 243.977 583.74 243.872 584.094 243.664C584.448 243.456 584.758 243.177 585.023 242.828L585.898 243.523C585.716 243.799 585.484 244.062 585.203 244.312C584.922 244.562 584.576 244.766 584.164 244.922C583.758 245.078 583.276 245.156 582.719 245.156ZM589.141 238.352V245H587.695V236.547H589.062L589.141 238.352ZM588.797 240.453L588.195 240.43C588.201 239.852 588.286 239.318 588.453 238.828C588.62 238.333 588.854 237.904 589.156 237.539C589.458 237.174 589.818 236.893 590.234 236.695C590.656 236.492 591.122 236.391 591.633 236.391C592.049 236.391 592.424 236.448 592.758 236.562C593.091 236.672 593.375 236.849 593.609 237.094C593.849 237.339 594.031 237.656 594.156 238.047C594.281 238.432 594.344 238.904 594.344 239.461V245H592.891V239.445C592.891 239.003 592.826 238.648 592.695 238.383C592.565 238.112 592.375 237.917 592.125 237.797C591.875 237.672 591.568 237.609 591.203 237.609C590.844 237.609 590.516 237.685 590.219 237.836C589.927 237.987 589.674 238.195 589.461 238.461C589.253 238.727 589.089 239.031 588.969 239.375C588.854 239.714 588.797 240.073 588.797 240.453ZM601.867 243.359V233H603.32V245H601.992L601.867 243.359ZM596.18 240.867V240.703C596.18 240.057 596.258 239.471 596.414 238.945C596.576 238.414 596.802 237.958 597.094 237.578C597.391 237.198 597.742 236.906 598.148 236.703C598.56 236.495 599.018 236.391 599.523 236.391C600.055 236.391 600.518 236.484 600.914 236.672C601.315 236.854 601.654 237.122 601.93 237.477C602.211 237.826 602.432 238.247 602.594 238.742C602.755 239.237 602.867 239.797 602.93 240.422V241.141C602.872 241.76 602.76 242.318 602.594 242.812C602.432 243.307 602.211 243.729 601.93 244.078C601.654 244.427 601.315 244.695 600.914 244.883C600.513 245.065 600.044 245.156 599.508 245.156C599.013 245.156 598.56 245.049 598.148 244.836C597.742 244.622 597.391 244.323 597.094 243.938C596.802 243.552 596.576 243.099 596.414 242.578C596.258 242.052 596.18 241.482 596.18 240.867ZM597.633 240.703V240.867C597.633 241.289 597.674 241.685 597.758 242.055C597.846 242.424 597.982 242.75 598.164 243.031C598.346 243.312 598.578 243.534 598.859 243.695C599.141 243.852 599.477 243.93 599.867 243.93C600.346 243.93 600.74 243.828 601.047 243.625C601.359 243.422 601.609 243.154 601.797 242.82C601.984 242.487 602.13 242.125 602.234 241.734V239.852C602.172 239.565 602.081 239.289 601.961 239.023C601.846 238.753 601.695 238.513 601.508 238.305C601.326 238.091 601.099 237.922 600.828 237.797C600.562 237.672 600.247 237.609 599.883 237.609C599.487 237.609 599.146 237.693 598.859 237.859C598.578 238.021 598.346 238.245 598.164 238.531C597.982 238.812 597.846 239.141 597.758 239.516C597.674 239.885 597.633 240.281 597.633 240.703Z" fill="white"/>
<rect x="510" y="209" width="126" height="61" stroke="white" stroke-width="2" stroke-linejoin="round"/>
<path d="M456.116 251.116C455.628 251.604 455.628 252.396 456.116 252.884L464.071 260.839C464.559 261.327 465.351 261.327 465.839 260.839C466.327 260.351 466.327 259.559 465.839 259.071L458.768 252L465.839 244.929C466.327 244.441 466.327 243.649 465.839 243.161C465.351 242.673 464.559 242.673 464.071 243.161L456.116 251.116ZM494 250.75H457V253.25H494V250.75Z" fill="white"/>
<path d="M494.884 231.116C495.372 231.604 495.372 232.396 494.884 232.884L486.929 240.839C486.441 241.327 485.649 241.327 485.161 240.839C484.673 240.351 484.673 239.559 485.161 239.071L492.232 232L485.161 224.929C484.673 224.441 484.673 223.649 485.161 223.161C485.649 222.673 486.441 222.673 486.929 223.161L494.884 231.116ZM457 230.75H494V233.25H457V230.75Z" fill="white"/>
<path d="M408.116 356.884C408.604 357.372 409.396 357.372 409.884 356.884L417.839 348.929C418.327 348.441 418.327 347.649 417.839 347.161C417.351 346.673 416.559 346.673 416.071 347.161L409 354.232L401.929 347.161C401.441 346.673 400.649 346.673 400.161 347.161C399.673 347.649 399.673 348.441 400.161 348.929L408.116 356.884ZM407.75 287V356H410.25V287H407.75Z" fill="white"/>
<path d="M388.116 286.116C388.604 285.628 389.396 285.628 389.884 286.116L397.839 294.071C398.327 294.559 398.327 295.351 397.839 295.839C397.351 296.327 396.559 296.327 396.071 295.839L389 288.768L381.929 295.839C381.441 296.327 380.649 296.327 380.161 295.839C379.673 295.351 379.673 294.559 380.161 294.071L388.116 286.116ZM387.75 356V287H390.25V356H387.75Z" fill="white"/>
<path d="M408.116 538.884C408.604 539.372 409.396 539.372 409.884 538.884L417.839 530.929C418.327 530.441 418.327 529.649 417.839 529.161C417.351 528.673 416.559 528.673 416.071 529.161L409 536.232L401.929 529.161C401.441 528.673 400.649 528.673 400.161 529.161C399.673 529.649 399.673 530.441 400.161 530.929L408.116 538.884ZM407.75 447V538H410.25V447H407.75Z" fill="white"/>
<path d="M388.116 446.116C388.604 445.628 389.396 445.628 389.884 446.116L397.839 454.071C398.327 454.559 398.327 455.351 397.839 455.839C397.351 456.327 396.559 456.327 396.071 455.839L389 448.768L381.929 455.839C381.441 456.327 380.649 456.327 380.161 455.839C379.673 455.351 379.673 454.559 380.161 454.071L388.116 446.116ZM387.75 538V447H390.25V538H387.75Z" fill="white"/>
<path d="M465.326 356.292C465.518 356.955 466.212 357.336 466.875 357.143L477.678 354.005C478.341 353.812 478.722 353.119 478.53 352.456C478.337 351.793 477.643 351.412 476.981 351.604L467.378 354.394L464.588 344.791C464.395 344.128 463.702 343.747 463.039 343.939C462.376 344.132 461.994 344.826 462.187 345.488L465.326 356.292ZM499.228 293.866L465.431 355.341L467.621 356.545L501.419 295.07L499.228 293.866Z" fill="white"/>
<path d="M482.449 283.632C483.112 283.439 483.805 283.821 483.998 284.484L487.136 295.287C487.329 295.95 486.948 296.644 486.285 296.836C485.622 297.029 484.928 296.647 484.735 295.984L481.946 286.381L472.343 289.171C471.68 289.364 470.986 288.983 470.794 288.32C470.601 287.657 470.982 286.963 471.645 286.771L482.449 283.632ZM447.905 345.706L481.702 284.23L483.893 285.435L450.095 346.91L447.905 345.706Z" fill="white"/>
<path d="M301.116 249.116C300.628 249.604 300.628 250.396 301.116 250.884L309.071 258.839C309.559 259.327 310.351 259.327 310.839 258.839C311.327 258.351 311.327 257.559 310.839 257.071L303.768 250L310.839 242.929C311.327 242.441 311.327 241.649 310.839 241.161C310.351 240.673 309.559 240.673 309.071 241.161L301.116 249.116ZM339 248.75H302V251.25H339V248.75Z" fill="white"/>
<path d="M339.884 229.116C340.372 229.604 340.372 230.396 339.884 230.884L331.929 238.839C331.441 239.327 330.649 239.327 330.161 238.839C329.673 238.351 329.673 237.559 330.161 237.071L337.232 230L330.161 222.929C329.673 222.441 329.673 221.649 330.161 221.161C330.649 220.673 331.441 220.673 331.929 221.161L339.884 229.116ZM302 228.75H339V231.25H302V228.75Z" fill="white"/>
</svg>

